<?xml version="1.0" encoding="utf-8"?>
<!-- Generator: Adobe Illustrator 16.0.0, SVG Export Plug-In . SVG Version: 6.00 Build 0)  -->
<!DOCTYPE svg PUBLIC "-//W3C//DTD SVG 1.1//EN" "http://www.w3.org/Graphics/SVG/1.1/DTD/svg11.dtd">
<svg version="1.1" id="Layer_1" xmlns="http://www.w3.org/2000/svg" xmlns:xlink="http://www.w3.org/1999/xlink" x="0px" y="0px"
	 width="311.666px" height="85px" viewBox="0 0 311.666 85" enable-background="new 0 0 311.666 85" xml:space="preserve">
<g>
	<path d="M0.346-228.431c0,2.543-0.477,4.928-1.431,7.154s-2.281,4.188-3.975,5.883c-1.697,1.697-3.657,3.021-5.883,3.975
		c-2.226,0.955-4.611,1.432-7.155,1.432h-12.243c-2.651,0-3.975-1.324-3.975-3.975v-73.141c0-2.647,1.324-3.975,3.975-3.975h10.812
		c2.544,0,4.929,0.478,7.155,1.431c2.226,0.954,4.186,2.281,5.883,3.975c1.694,1.697,3.021,3.658,3.975,5.884
		s1.431,4.61,1.431,7.155v4.77c0,5.088-1.804,9.436-5.406,13.038l-2.385,2.385l2.703,2.226c4.345,3.712,6.519,8.376,6.519,13.993
		V-228.431z M-29.388-286.307v31.799h10.017c3.709,0,6.889-1.324,9.54-3.975c2.648-2.648,3.975-5.828,3.975-9.54v-4.771
		c0-3.709-1.327-6.889-3.975-9.539c-2.651-2.648-5.831-3.975-9.54-3.975H-29.388z M-4.583-235.904c0-3.709-1.327-6.89-3.975-9.54
		c-2.651-2.648-5.831-3.976-9.54-3.976h-11.289v34.663h11.289c3.709,0,6.889-1.324,9.54-3.976c2.648-2.648,3.975-5.828,3.975-9.54
		V-235.904z"/>
	<path d="M108.304-226.841c0,2.332-0.425,4.506-1.272,6.519c-0.85,2.015-2.042,3.764-3.578,5.247
		c-1.538,1.485-3.314,2.678-5.327,3.577c-2.015,0.901-4.188,1.352-6.519,1.352c-2.333,0-4.506-0.45-6.519-1.352
		c-2.015-0.899-3.764-2.092-5.247-3.577c-1.486-1.483-2.678-3.232-3.578-5.247c-0.902-2.013-1.352-4.187-1.352-6.519v-47.542
		c0-2.33,0.45-4.504,1.352-6.519c0.899-2.013,2.092-3.788,3.578-5.327c1.483-1.535,3.232-2.727,5.247-3.576
		c2.012-0.848,4.186-1.272,6.519-1.272c2.331,0,4.504,0.425,6.519,1.272c2.013,0.85,3.789,2.041,5.327,3.576
		c1.535,1.539,2.728,3.314,3.578,5.327c0.847,2.015,1.272,4.188,1.272,6.519V-226.841z M103.375-274.383
		c0-3.283-1.14-6.066-3.418-8.348c-2.281-2.277-5.063-3.418-8.348-3.418c-3.287,0-6.069,1.141-8.347,3.418
		c-2.281,2.281-3.418,5.064-3.418,8.348v47.542c0,3.286,1.138,6.068,3.418,8.348c2.278,2.279,5.061,3.418,8.347,3.418
		c3.285,0,6.067-1.139,8.348-3.418c2.278-2.279,3.418-5.062,3.418-8.348V-274.383z"/>
	<path d="M156.32-209.987h-0.477c-1.697,0-2.862-0.74-3.498-2.227l-18.762-36.092v35.774c0,1.696-0.795,2.544-2.385,2.544
		c-1.697,0-2.544-0.848-2.544-2.544v-76.479c0-1.59,0.847-2.386,2.544-2.386c1.59,0,2.385,0.796,2.385,2.386v35.934l18.285-36.094
		c0.636-1.482,1.801-2.226,3.498-2.226h0.477c1.801,0,2.278,0.851,1.431,2.544l-19.398,38.16l19.875,38.16
		C158.598-210.835,158.121-209.987,156.32-209.987z"/>
	<path d="M210.537-226.205c1.694,0.214,2.438,1.061,2.226,2.544c-0.635,4.029-2.543,7.342-5.724,9.938
		c-3.18,2.599-6.784,3.896-10.812,3.896c-2.333,0-4.507-0.45-6.52-1.352c-2.015-0.899-3.764-2.092-5.246-3.577
		c-1.486-1.483-2.679-3.232-3.578-5.248c-0.902-2.012-1.352-4.186-1.352-6.519v-47.541c0-2.33,0.449-4.504,1.352-6.52
		c0.899-2.012,2.092-3.788,3.578-5.326c1.482-1.535,3.231-2.728,5.246-3.577c2.013-0.847,4.187-1.272,6.52-1.272
		c4.027,0,7.632,1.3,10.812,3.896c3.181,2.598,5.089,5.91,5.724,9.938c0.212,1.59-0.531,2.385-2.226,2.385
		c-1.59,0-2.544-0.795-2.862-2.385c-0.531-2.545-1.883-4.691-4.055-6.439c-2.174-1.75-4.638-2.624-7.393-2.624
		c-3.287,0-6.07,1.14-8.348,3.419c-2.281,2.28-3.418,5.062-3.418,8.348v47.54c0,3.287,1.137,6.07,3.418,8.348
		c2.277,2.281,5.061,3.418,8.348,3.418c2.861,0,5.352-0.847,7.473-2.543c2.119-1.695,3.443-3.816,3.975-6.36
		C207.993-225.41,208.947-226.205,210.537-226.205z"/>
	<path d="M265.391-209.987c-1.697,0-2.545-0.848-2.545-2.544v-35.774h-24.804v35.774c0,1.696-0.795,2.544-2.385,2.544
		c-1.696,0-2.543-0.848-2.543-2.544v-76.479c0-1.59,0.847-2.386,2.543-2.386c1.59,0,2.385,0.796,2.385,2.386v35.934h24.804v-35.934
		c0-1.59,0.848-2.386,2.545-2.386c1.59,0,2.385,0.796,2.385,2.386v76.479C267.775-210.835,266.98-209.987,265.391-209.987z"/>
	<path d="M308.16-286.307h-15.105v31.641h9.223c1.59,0,2.385,0.795,2.385,2.385c0,1.697-0.795,2.544-2.385,2.544h-9.223v34.662
		h15.105c1.693,0,2.543,0.85,2.543,2.544c0,1.696-0.85,2.544-2.543,2.544h-15.9c-2.65,0-3.975-1.324-3.975-3.975v-73.458
		c0-2.648,1.324-3.976,3.975-3.976h15.9c1.693,0,2.543,0.851,2.543,2.544C310.703-287.154,309.854-286.307,308.16-286.307z"/>
	<path d="M347.908-252.281c0,1.697-0.795,2.544-2.385,2.544h-9.223v37.206c0,1.696-0.795,2.544-2.385,2.544
		c-1.695,0-2.543-0.848-2.543-2.544v-74.889c0-2.648,1.324-3.976,3.975-3.976h15.9c1.693,0,2.543,0.851,2.543,2.544
		c0,1.697-0.85,2.545-2.543,2.545h-15.105v31.641h9.223C346.848-254.666,347.695-253.871,347.908-252.281z"/>
</g>
<g>
	<path d="M49.475-285.933v59.092c0,3.286-1.14,6.068-3.418,8.348c-2.281,2.279-5.063,3.418-8.348,3.418
		c-3.287,0-6.069-1.139-8.347-3.418c-2.281-2.279-3.418-5.062-3.418-8.348v-59.671l-4.927-4.926c0,0.019-0.002,17.036-0.002,17.055
		v47.542c0,2.332,0.45,4.506,1.352,6.519c0.899,2.015,2.092,3.764,3.578,5.247c1.483,1.485,3.232,2.678,5.247,3.577
		c2.012,0.901,4.186,1.352,6.519,1.352c2.331,0,4.504-0.45,6.519-1.352c2.013-0.899,3.789-2.092,5.327-3.577
		c1.535-1.483,2.728-3.232,3.578-5.247c0.847-2.013,1.272-4.187,1.272-6.519v-64.021L49.475-285.933z"/>
	<g>
		<g>
			<path d="M24.494-277.546c8.288,5.706,19.36,6.856,26.89-0.57c1.149-1.133-0.619-2.9-1.768-1.768
				c-6.756,6.663-16.559,5.206-23.86,0.18C24.424-280.621,23.176-278.453,24.494-277.546L24.494-277.546z"/>
		</g>
	</g>
</g>
<path d="M28.346-91.431c0,2.543-0.477,4.928-1.431,7.154s-2.281,4.188-3.975,5.883c-1.697,1.697-3.657,3.021-5.883,3.975
	c-2.226,0.955-4.611,1.432-7.155,1.432H-2.341c-2.651,0-3.975-1.324-3.975-3.975v-73.141c0-2.647,1.324-3.975,3.975-3.975H8.471
	c2.544,0,4.929,0.478,7.155,1.431c2.226,0.954,4.186,2.281,5.883,3.975c1.694,1.697,3.021,3.658,3.975,5.884s1.431,4.61,1.431,7.155
	v4.77c0,5.088-1.804,9.436-5.406,13.038l-2.385,2.385l2.703,2.226c4.345,3.712,6.519,8.376,6.519,13.993V-91.431z M-1.388-149.307
	v31.799H8.629c3.709,0,6.889-1.324,9.54-3.975c2.648-2.648,3.975-5.828,3.975-9.54v-4.771c0-3.709-1.327-6.889-3.975-9.539
	c-2.651-2.648-5.831-3.975-9.54-3.975H-1.388z M23.417-98.904c0-3.709-1.327-6.89-3.975-9.54c-2.651-2.648-5.831-3.976-9.54-3.976
	H-1.388v34.663H9.901c3.709,0,6.889-1.324,9.54-3.976c2.648-2.648,3.975-5.828,3.975-9.54V-98.904z"/>
<path d="M121.688-96.989c0.799,2.192,1.142,4.381,1.035,6.561c-0.109,2.185-0.632,4.236-1.568,6.154
	c-0.937,1.923-2.199,3.649-3.782,5.185c-1.585,1.534-3.474,2.702-5.664,3.499c-2.191,0.797-4.388,1.118-6.587,0.959
	c-2.202-0.156-4.252-0.678-6.154-1.566c-1.903-0.886-3.623-2.122-5.157-3.707c-1.536-1.583-2.702-3.472-3.498-5.664l-16.261-44.674
	c-0.797-2.19-1.118-4.388-0.959-6.588c0.156-2.198,0.67-4.276,1.54-6.23c0.869-1.949,2.104-3.666,3.707-5.153
	c1.601-1.486,3.5-2.628,5.69-3.427c2.19-0.797,4.378-1.14,6.561-1.033c2.182,0.11,4.258,0.622,6.229,1.538
	c1.97,0.923,3.697,2.182,5.185,3.783c1.484,1.603,2.626,3.499,3.424,5.69L121.688-96.989z M100.796-139.979
	c-1.123-3.086-3.146-5.312-6.067-6.675c-2.923-1.358-5.927-1.479-9.014-0.356c-3.089,1.125-5.312,3.147-6.674,6.066
	c-1.365,2.925-1.48,5.929-0.357,9.014l16.26,44.677c1.124,3.086,3.145,5.312,6.068,6.674c2.919,1.362,5.923,1.48,9.012,0.356
	c3.086-1.124,5.311-3.144,6.675-6.067c1.362-2.922,1.481-5.926,0.358-9.013L100.796-139.979z"/>
<path d="M156.977-72.987H156.5c-1.697,0-2.862-0.74-3.498-2.227l-18.762-36.092v35.774c0,1.696-0.795,2.544-2.385,2.544
	c-1.697,0-2.544-0.848-2.544-2.544v-76.479c0-1.59,0.847-2.386,2.544-2.386c1.59,0,2.385,0.796,2.385,2.386v35.934l18.285-36.094
	c0.636-1.482,1.801-2.226,3.498-2.226h0.477c1.801,0,2.278,0.851,1.431,2.544l-19.398,38.16l19.875,38.16
	C159.255-73.835,158.778-72.987,156.977-72.987z"/>
<path d="M194.622-89.205c1.694,0.214,2.438,1.061,2.226,2.544c-0.635,4.029-2.543,7.342-5.724,9.938
	c-3.18,2.599-6.784,3.896-10.812,3.896c-2.333,0-4.507-0.45-6.52-1.352c-2.015-0.899-3.764-2.092-5.246-3.577
	c-1.486-1.483-2.679-3.232-3.578-5.248c-0.902-2.012-1.352-4.186-1.352-6.519v-47.541c0-2.33,0.449-4.504,1.352-6.52
	c0.899-2.012,2.092-3.788,3.578-5.326c1.482-1.535,3.231-2.728,5.246-3.577c2.013-0.847,4.187-1.272,6.52-1.272
	c4.027,0,7.632,1.3,10.812,3.896c3.181,2.598,5.089,5.91,5.724,9.938c0.212,1.59-0.531,2.385-2.226,2.385
	c-1.59,0-2.544-0.795-2.862-2.385c-0.531-2.545-1.883-4.691-4.055-6.439c-2.174-1.75-4.638-2.624-7.393-2.624
	c-3.287,0-6.07,1.14-8.348,3.419c-2.281,2.28-3.418,5.062-3.418,8.348v47.54c0,3.287,1.137,6.07,3.418,8.348
	c2.277,2.281,5.061,3.418,8.348,3.418c2.861,0,5.352-0.847,7.473-2.543c2.119-1.695,3.443-3.816,3.975-6.36
	C192.078-88.41,193.032-89.205,194.622-89.205z"/>
<path d="M235.964-72.987c-1.697,0-2.545-0.848-2.545-2.544v-35.774h-24.805v35.774c0,1.696-0.795,2.544-2.385,2.544
	c-1.695,0-2.543-0.848-2.543-2.544v-76.479c0-1.59,0.848-2.386,2.543-2.386c1.59,0,2.385,0.796,2.385,2.386v35.934h24.805v-35.934
	c0-1.59,0.848-2.386,2.545-2.386c1.59,0,2.385,0.796,2.385,2.386v76.479C238.349-73.835,237.554-72.987,235.964-72.987z"/>
<path d="M267.026-149.307h-15.105v31.641h9.223c1.59,0,2.385,0.795,2.385,2.385c0,1.697-0.795,2.544-2.385,2.544h-9.223v34.662
	h15.105c1.693,0,2.543,0.85,2.543,2.544c0,1.696-0.85,2.544-2.543,2.544h-15.9c-2.65,0-3.975-1.324-3.975-3.975v-73.458
	c0-2.648,1.324-3.976,3.975-3.976h15.9c1.693,0,2.543,0.851,2.543,2.544C269.569-150.154,268.72-149.307,267.026-149.307z"/>
<path d="M294.908-115.281c0,1.697-0.795,2.544-2.385,2.544h-9.223v37.206c0,1.696-0.795,2.544-2.385,2.544
	c-1.695,0-2.543-0.848-2.543-2.544v-74.889c0-2.648,1.324-3.976,3.975-3.976h15.9c1.693,0,2.543,0.851,2.543,2.544
	c0,1.697-0.85,2.545-2.543,2.545h-15.105v31.641h9.223C293.848-117.666,294.695-116.871,294.908-115.281z"/>
<path d="M67.539-89.841c0,2.332-0.425,4.506-1.272,6.519c-0.85,2.015-2.042,3.764-3.578,5.247c-1.538,1.485-3.314,2.678-5.327,3.577
	c-2.015,0.901-4.188,1.352-6.519,1.352c-2.333,0-4.506-0.45-6.519-1.352c-2.015-0.899-3.764-2.092-5.247-3.577
	c-1.486-1.483-2.678-3.232-3.578-5.247c-0.902-2.013-1.352-4.187-1.352-6.519v-47.542c0-2.33,0.45-4.504,1.352-6.519
	c0.899-2.013,2.092-3.788,3.578-5.327c1.483-1.535,3.232-2.727,5.247-3.576c2.012-0.848,4.186-1.272,6.519-1.272
	c2.331,0,4.504,0.425,6.519,1.272c2.013,0.85,3.789,2.041,5.327,3.576c1.535,1.539,2.728,3.314,3.578,5.327
	c0.847,2.015,1.272,4.188,1.272,6.519V-89.841z M62.609-137.383c0-3.283-1.14-6.066-3.418-8.348
	c-2.281-2.277-5.063-3.418-8.348-3.418c-3.287,0-6.069,1.141-8.347,3.418c-2.281,2.281-3.418,5.064-3.418,8.348v47.542
	c0,3.286,1.138,6.068,3.418,8.348c2.278,2.279,5.061,3.418,8.347,3.418c3.285,0,6.067-1.139,8.348-3.418
	c2.278-2.279,3.418-5.062,3.418-8.348V-137.383z"/>
<path d="M37.346,65.235c0,2.543-0.477,4.928-1.431,7.154s-2.281,4.188-3.975,5.883c-1.697,1.697-3.657,3.021-5.883,3.975
	c-2.226,0.955-4.611,1.432-7.155,1.432H6.659c-2.651,0-3.975-1.324-3.975-3.975V6.563c0-2.647,1.324-3.975,3.975-3.975h10.812
	c2.544,0,4.929,0.478,7.155,1.431c2.226,0.954,4.186,2.281,5.883,3.975c1.694,1.697,3.021,3.658,3.975,5.884s1.431,4.61,1.431,7.155
	v4.77c0,5.088-1.804,9.436-5.406,13.038l-2.385,2.385l2.703,2.226c4.345,3.712,6.519,8.376,6.519,13.993V65.235z M7.612,7.359
	v31.799h10.017c3.709,0,6.889-1.324,9.54-3.975c2.648-2.648,3.975-5.828,3.975-9.54v-4.771c0-3.709-1.327-6.889-3.975-9.539
	c-2.651-2.648-5.831-3.975-9.54-3.975H7.612z M32.417,57.762c0-3.709-1.327-6.89-3.975-9.54c-2.651-2.648-5.831-3.976-9.54-3.976
	H7.612v34.663h11.289c3.709,0,6.889-1.324,9.54-3.976c2.648-2.648,3.975-5.828,3.975-9.54V57.762z"/>
<path d="M130.688,59.677c0.799,2.192,1.142,4.381,1.035,6.561c-0.109,2.185-0.632,4.236-1.568,6.154
	c-0.937,1.923-2.199,3.649-3.782,5.185c-1.585,1.534-3.474,2.702-5.664,3.499c-2.191,0.797-4.388,1.118-6.587,0.959
	c-2.202-0.156-4.252-0.678-6.154-1.566c-1.903-0.886-3.623-2.122-5.157-3.707c-1.536-1.583-2.702-3.472-3.498-5.664L83.052,26.423
	c-0.797-2.19-1.118-4.388-0.959-6.588c0.156-2.198,0.67-4.276,1.54-6.23c0.869-1.949,2.104-3.666,3.707-5.153
	c1.601-1.486,3.5-2.628,5.69-3.427c2.19-0.797,4.378-1.14,6.561-1.033c2.182,0.11,4.258,0.622,6.229,1.538
	c1.97,0.923,3.697,2.182,5.185,3.783c1.484,1.603,2.626,3.499,3.424,5.69L130.688,59.677z M109.796,16.688
	c-1.123-3.086-3.146-5.312-6.067-6.675c-2.923-1.358-5.927-1.479-9.014-0.356c-3.089,1.125-5.312,3.147-6.674,6.066
	c-1.365,2.925-1.48,5.929-0.357,9.014l16.26,44.677c1.124,3.086,3.145,5.312,6.068,6.674c2.919,1.362,5.923,1.48,9.012,0.356
	c3.086-1.124,5.311-3.144,6.675-6.067c1.362-2.922,1.481-5.926,0.358-9.013L109.796,16.688z"/>
<path d="M165.977,83.679H165.5c-1.697,0-2.862-0.74-3.498-2.227L143.24,45.36v35.774c0,1.696-0.795,2.544-2.385,2.544
	c-1.697,0-2.544-0.848-2.544-2.544V4.656c0-1.59,0.847-2.386,2.544-2.386c1.59,0,2.385,0.796,2.385,2.386V40.59l18.285-36.094
	c0.636-1.482,1.801-2.226,3.498-2.226h0.477c1.801,0,2.278,0.851,1.431,2.544l-19.398,38.16l19.875,38.16
	C168.255,82.831,167.778,83.679,165.977,83.679z"/>
<path d="M203.622,67.461c1.694,0.214,2.438,1.061,2.226,2.544c-0.635,4.029-2.543,7.342-5.724,9.938
	c-3.18,2.599-6.784,3.896-10.812,3.896c-2.333,0-4.507-0.45-6.52-1.352c-2.015-0.899-3.764-2.092-5.246-3.577
	c-1.486-1.483-2.679-3.232-3.578-5.248c-0.902-2.012-1.352-4.186-1.352-6.519V19.602c0-2.33,0.449-4.504,1.352-6.52
	c0.899-2.012,2.092-3.788,3.578-5.326c1.482-1.535,3.231-2.728,5.246-3.577c2.013-0.847,4.187-1.272,6.52-1.272
	c4.027,0,7.632,1.3,10.812,3.896c3.181,2.598,5.089,5.91,5.724,9.938c0.212,1.59-0.531,2.385-2.226,2.385
	c-1.59,0-2.544-0.795-2.862-2.385c-0.531-2.545-1.883-4.691-4.055-6.439c-2.174-1.75-4.638-2.624-7.393-2.624
	c-3.287,0-6.07,1.14-8.348,3.419c-2.281,2.28-3.418,5.062-3.418,8.348v47.54c0,3.287,1.137,6.07,3.418,8.348
	c2.277,2.281,5.061,3.418,8.348,3.418c2.861,0,5.352-0.847,7.473-2.543c2.119-1.695,3.443-3.816,3.975-6.36
	C201.078,68.256,202.032,67.461,203.622,67.461z"/>
<path d="M244.964,83.679c-1.697,0-2.545-0.848-2.545-2.544V45.36h-24.805v35.774c0,1.696-0.795,2.544-2.385,2.544
	c-1.695,0-2.543-0.848-2.543-2.544V4.656c0-1.59,0.848-2.386,2.543-2.386c1.59,0,2.385,0.796,2.385,2.386V40.59h24.805V4.656
	c0-1.59,0.848-2.386,2.545-2.386c1.59,0,2.385,0.796,2.385,2.386v76.479C247.349,82.831,246.554,83.679,244.964,83.679z"/>
<path d="M276.026,7.359h-15.105V39h11.223c1.59,0,2.385,0.795,2.385,2.385c0,1.697-0.795,2.544-2.385,2.544h-11.223v34.662h15.105
	c1.693,0,2.543,0.85,2.543,2.544c0,1.696-0.85,2.544-2.543,2.544h-15.9c-2.65,0-3.975-1.324-3.975-3.975V6.246
	c0-2.648,1.324-3.976,3.975-3.976h15.9c1.693,0,2.543,0.851,2.543,2.544C278.569,6.512,277.72,7.359,276.026,7.359z"/>
<path d="M305.908,41.385c0,1.697-0.795,2.544-2.385,2.544h-11.223v37.206c0,1.696-0.795,2.544-2.385,2.544
	c-1.695,0-2.543-0.848-2.543-2.544V6.246c0-2.648,1.324-3.976,3.975-3.976h15.9c1.693,0,2.543,0.851,2.543,2.544
	c0,1.697-0.85,2.545-2.543,2.545h-15.105V39h11.223C304.848,39,305.695,39.795,305.908,41.385z"/>
<path d="M76.539,66.825c0,2.332-0.425,4.506-1.272,6.519c-0.85,2.015-2.042,3.764-3.578,5.247c-1.538,1.485-3.314,2.678-5.327,3.577
	c-2.015,0.901-4.188,1.352-6.519,1.352c-2.333,0-4.506-0.45-6.519-1.352c-2.015-0.899-3.764-2.092-5.247-3.577
	c-1.486-1.483-2.678-3.232-3.578-5.247c-0.902-2.013-1.352-4.187-1.352-6.519V19.283c0-2.33,0.45-4.504,1.352-6.519
	c0.899-2.013,2.092-3.788,3.578-5.327c1.483-1.535,3.232-2.727,5.247-3.576c2.012-0.848,4.186-1.272,6.519-1.272
	c2.331,0,4.504,0.425,6.519,1.272c2.013,0.85,3.789,2.041,5.327,3.576c1.535,1.539,2.728,3.314,3.578,5.327
	c0.847,2.015,1.272,4.188,1.272,6.519V66.825z M71.609,19.283c0-3.283-1.14-6.066-3.418-8.348c-2.281-2.277-5.063-3.418-8.348-3.418
	c-3.287,0-6.069,1.141-8.347,3.418c-2.281,2.281-3.418,5.064-3.418,8.348v47.542c0,3.286,1.138,6.068,3.418,8.348
	c2.278,2.279,5.061,3.418,8.347,3.418c3.285,0,6.067-1.139,8.348-3.418c2.278-2.279,3.418-5.062,3.418-8.348V19.283z"/>
</svg>
