<?xml version="1.0" encoding="utf-8"?>
<!-- Generator: Adobe Illustrator 16.0.0, SVG Export Plug-In . SVG Version: 6.00 Build 0)  -->
<!DOCTYPE svg PUBLIC "-//W3C//DTD SVG 1.1//EN" "http://www.w3.org/Graphics/SVG/1.1/DTD/svg11.dtd">
<svg version="1.1" id="Layer_1" xmlns="http://www.w3.org/2000/svg" xmlns:xlink="http://www.w3.org/1999/xlink" x="0px" y="0px"
	 width="409px" height="105px" viewBox="0 0 409 105" enable-background="new 0 0 409 105" xml:space="preserve">
<path fill="#FFFFFF" d="M49.346,77.069c0,2.543-0.477,4.928-1.431,7.154s-2.281,4.188-3.975,5.883
	c-1.697,1.697-3.657,3.021-5.883,3.975c-2.226,0.955-4.611,1.432-7.155,1.432H18.659c-2.651,0-3.975-1.324-3.975-3.975V18.397
	c0-2.647,1.324-3.975,3.975-3.975h10.812c2.544,0,4.929,0.478,7.155,1.431c2.226,0.954,4.186,2.281,5.883,3.975
	c1.694,1.697,3.021,3.658,3.975,5.884s1.431,4.61,1.431,7.155v4.77c0,5.088-1.804,9.436-5.406,13.038l-2.385,2.385l2.703,2.226
	c4.345,3.712,6.519,8.376,6.519,13.993V77.069z M19.612,19.193v31.799h10.017c3.709,0,6.889-1.324,9.54-3.975
	c2.648-2.648,3.975-5.828,3.975-9.54v-4.771c0-3.709-1.327-6.889-3.975-9.539c-2.651-2.648-5.831-3.975-9.54-3.975H19.612z
	 M44.417,69.596c0-3.709-1.327-6.89-3.975-9.54c-2.651-2.648-5.831-3.976-9.54-3.976H19.612v34.663h11.289
	c3.709,0,6.889-1.324,9.54-3.976c2.648-2.648,3.975-5.828,3.975-9.54V69.596z"/>
<path fill="#FFFFFF" d="M157.304,78.659c0,2.332-0.425,4.506-1.272,6.519c-0.85,2.015-2.042,3.764-3.578,5.247
	c-1.538,1.485-3.314,2.678-5.327,3.577c-2.015,0.901-4.188,1.352-6.519,1.352c-2.333,0-4.506-0.45-6.519-1.352
	c-2.015-0.899-3.764-2.092-5.247-3.577c-1.486-1.483-2.678-3.232-3.578-5.247c-0.902-2.013-1.352-4.187-1.352-6.519V31.117
	c0-2.33,0.45-4.504,1.352-6.519c0.899-2.013,2.092-3.788,3.578-5.327c1.483-1.535,3.232-2.727,5.247-3.576
	c2.012-0.848,4.186-1.272,6.519-1.272c2.331,0,4.504,0.425,6.519,1.272c2.013,0.85,3.789,2.041,5.327,3.576
	c1.535,1.539,2.728,3.314,3.578,5.327c0.847,2.015,1.272,4.188,1.272,6.519V78.659z M152.375,31.117c0-3.283-1.14-6.066-3.418-8.348
	c-2.281-2.277-5.063-3.418-8.348-3.418c-3.287,0-6.069,1.141-8.347,3.418c-2.281,2.281-3.418,5.064-3.418,8.348v47.542
	c0,3.286,1.138,6.068,3.418,8.348c2.278,2.279,5.061,3.418,8.347,3.418c3.285,0,6.067-1.139,8.348-3.418
	c2.278-2.279,3.418-5.062,3.418-8.348V31.117z"/>
<path fill="#FFFFFF" d="M205.32,95.513h-0.477c-1.697,0-2.862-0.74-3.498-2.227l-18.762-36.092v35.774
	c0,1.696-0.795,2.544-2.385,2.544c-1.697,0-2.544-0.848-2.544-2.544V16.49c0-1.59,0.847-2.386,2.544-2.386
	c1.59,0,2.385,0.796,2.385,2.386v35.934l18.285-36.094c0.636-1.482,1.801-2.226,3.498-2.226h0.477c1.801,0,2.278,0.851,1.431,2.544
	l-19.398,38.16l19.875,38.16C207.598,94.665,207.121,95.513,205.32,95.513z"/>
<path fill="#FFFFFF" stroke="#FFFFFF" stroke-width="2" stroke-miterlimit="10" d="M253.537,79.295
	c1.694,0.214,2.438,1.061,2.226,2.544c-0.635,4.029-2.543,7.342-5.724,9.938c-3.18,2.599-6.784,3.896-10.812,3.896
	c-2.333,0-4.507-0.45-6.52-1.352c-2.015-0.899-3.764-2.092-5.246-3.577c-1.486-1.483-2.679-3.232-3.578-5.248
	c-0.902-2.012-1.352-4.186-1.352-6.519V31.436c0-2.33,0.449-4.504,1.352-6.52c0.899-2.012,2.092-3.788,3.578-5.326
	c1.482-1.535,3.231-2.728,5.246-3.577c2.013-0.847,4.187-1.272,6.52-1.272c4.027,0,7.632,1.3,10.812,3.896
	c3.181,2.598,5.089,5.91,5.724,9.938c0.212,1.59-0.531,2.385-2.226,2.385c-1.59,0-2.544-0.795-2.862-2.385
	c-0.531-2.545-1.883-4.691-4.055-6.439c-2.174-1.75-4.638-2.624-7.393-2.624c-3.287,0-6.07,1.14-8.348,3.419
	c-2.281,2.28-3.418,5.062-3.418,8.348v47.54c0,3.287,1.137,6.07,3.418,8.348c2.277,2.281,5.061,3.418,8.348,3.418
	c2.861,0,5.352-0.847,7.473-2.543c2.119-1.695,3.443-3.816,3.975-6.36C250.993,80.09,251.947,79.295,253.537,79.295z"/>
<path fill="#FFFFFF" stroke="#FFFFFF" stroke-width="2" stroke-miterlimit="10" d="M308.391,95.513
	c-1.697,0-2.545-0.848-2.545-2.544V57.194h-24.804v35.774c0,1.696-0.795,2.544-2.385,2.544c-1.696,0-2.543-0.848-2.543-2.544V16.49
	c0-1.59,0.847-2.386,2.543-2.386c1.59,0,2.385,0.796,2.385,2.386v35.934h24.804V16.49c0-1.59,0.848-2.386,2.545-2.386
	c1.59,0,2.385,0.796,2.385,2.386v76.479C310.775,94.665,309.98,95.513,308.391,95.513z"/>
<path fill="#FFFFFF" stroke="#FFFFFF" stroke-width="2" stroke-miterlimit="10" d="M351.16,19.193h-15.105v31.641h9.223
	c1.59,0,2.385,0.795,2.385,2.385c0,1.697-0.795,2.544-2.385,2.544h-9.223v34.662h15.105c1.693,0,2.543,0.85,2.543,2.544
	c0,1.696-0.85,2.544-2.543,2.544h-15.9c-2.65,0-3.975-1.324-3.975-3.975V18.08c0-2.648,1.324-3.976,3.975-3.976h15.9
	c1.693,0,2.543,0.851,2.543,2.544C353.703,18.346,352.854,19.193,351.16,19.193z"/>
<path fill="#FFFFFF" stroke="#FFFFFF" stroke-width="2" stroke-miterlimit="10" d="M390.908,53.219c0,1.697-0.795,2.544-2.385,2.544
	h-9.223v37.206c0,1.696-0.795,2.544-2.385,2.544c-1.695,0-2.543-0.848-2.543-2.544V18.08c0-2.648,1.324-3.976,3.975-3.976h15.9
	c1.693,0,2.543,0.851,2.543,2.544c0,1.697-0.85,2.545-2.543,2.545h-15.105v31.641h9.223
	C389.848,50.834,390.695,51.629,390.908,53.219z"/>
<path fill="#FFFFFF" d="M103.539,78.659c0,2.332-0.425,4.506-1.272,6.519c-0.85,2.015-2.042,3.764-3.578,5.247
	c-1.538,1.485-3.314,2.678-5.327,3.577c-2.015,0.901-4.188,1.352-6.519,1.352c-2.333,0-4.506-0.45-6.519-1.352
	c-2.015-0.899-3.764-2.092-5.247-3.577c-1.486-1.483-2.678-3.232-3.578-5.247c-0.902-2.013-1.352-4.187-1.352-6.519V31.117
	c0-2.33,0.45-4.504,1.352-6.519c0.899-2.013,2.092-3.788,3.578-5.327c1.483-1.535,3.232-2.727,5.247-3.576
	c2.012-0.848,4.186-1.272,6.519-1.272c2.331,0,4.504,0.425,6.519,1.272c2.013,0.85,3.789,2.041,5.327,3.576
	c1.535,1.539,2.728,3.314,3.578,5.327c0.847,2.015,1.272,4.188,1.272,6.519V78.659z M98.609,31.117c0-3.283-1.14-6.066-3.418-8.348
	c-2.281-2.277-5.063-3.418-8.348-3.418c-3.287,0-6.069,1.141-8.347,3.418c-2.281,2.281-3.418,5.064-3.418,8.348v47.542
	c0,3.286,1.138,6.068,3.418,8.348c2.278,2.279,5.061,3.418,8.347,3.418c3.285,0,6.067-1.139,8.348-3.418
	c2.278-2.279,3.418-5.062,3.418-8.348V31.117z"/>
</svg>
